<?xml version="1.0" encoding="UTF-8" standalone="no"?><!DOCTYPE svg PUBLIC "-//W3C//DTD SVG 1.1//EN" "http://www.w3.org/Graphics/SVG/1.1/DTD/svg11.dtd"><svg width="100%" height="100%" viewBox="0 0 267 240" version="1.1" xmlns="http://www.w3.org/2000/svg" xmlns:xlink="http://www.w3.org/1999/xlink" xml:space="preserve" xmlns:serif="http://www.serif.com/" style="fill-rule:evenodd;clip-rule:evenodd;stroke-linejoin:round;stroke-miterlimit:2;"><g><rect id="Artboard2" x="-6.7" y="-4.2" width="1199.1" height="248.8" style="fill:none;"/><clipPath id="_clip1"><rect x="-6.7" y="-4.2" width="1199.1" height="248.8"/></clipPath><g clip-path="url(#_clip1)"><g><path d="M229.6,0l-162.7,107.6l108.4,130.6l54.3,-238.2Z" style="fill:url(#_Linear2);"/><path d="M204.1,37.3l-37.3,161.9" style="fill:none;"/><path d="M216.1,19.8l-136.5,90.3l12.6,1" style="fill:none;"/><path d="M86,141.3l-39.4,64.5l74.4,-22.4l-35,-42.1Z" style="fill:#ab8b3f;"/><path d="M86,141.3l10.9,32.2l24.1,9.9l-35,-42.1Z" style="fill:#ab8b3f;"/><path d="M86,139.6l-39.4,64.5l50.3,-32.2l-10.9,-32.2Z" style="fill:url(#_Linear3);"/><path d="M96.9,173.6l-50.3,32.2l74.4,-22.4l-24.1,-9.9Z" style="fill:url(#_Linear4);"/><path d="M79.6,110l136.5,-90.3l-11.6,17" style="fill:none;"/><path d="M204.5,36.8l-37.4,165.2l-74.9,-90.9l112.3,-74.3Z" style="fill:url(#_Radial5);"/><path d="M170.6,220.5l-91,-110.4l12.6,1l74.9,90.9l3.5,18.6Z" style="fill:url(#_Linear6);"/><path d="M216.1,19.8l-45.5,200.7l-3.5,-18.6l37.4,-165.2l11.5,-17Z" style="fill:url(#_Radial7);"/><path d="M79.6,110l12.6,1l112.3,-74.3l11.5,-17l-136.5,90.3Z" style="fill:url(#_Radial8);"/><path d="M66.9,107.6l12.8,2.4l91,110.4l4.7,18.8l-108.5,-131.7Z" style="fill:url(#_Linear9);"/><path d="M216.1,19.8l13.5,-19.8l-54.2,239.3l-4.7,-18.8l45.5,-200.7Z" style="fill:url(#_Linear10);"/><path d="M229.6,0l-162.7,107.6l12.8,2.4l136.5,-90.3l13.5,-19.8Z" style="fill:url(#_Linear11);"/><path d="M0,27.5c0,0 140.2,40.7 145.8,46.2c4.8,4.8 33.2,50.1 33.2,50.1l53.1,-0c8.1,0 8.6,5.9 11,6.8c4.4,1.6 10.9,2 15.3,2.5c7,0.8 8.1,7.9 8.1,7.9c0,0 -65.1,18.7 -67.4,19.2c-3.3,0.6 -15.8,0 -19.5,-2.5c-8.5,-5.9 -31.4,-33 -31.4,-33c-3.3,-3.7 -10.3,-7.5 -13.6,-7.6c0,0 -61.2,-1.7 -62.7,-2.8c-2,-1.4 -71.9,-86.7 -71.9,-86.7Z" style="fill:url(#_Linear12);"/><path d="M215.2,155.9c-8,2.2 -15.9,-1.5 -20.2,-6.1c-8.1,-9 -14.9,-24.2 -16.1,-26.3l53.1,-0c8.1,0 8.6,5.9 11,6.8c4.4,1.6 10.9,2 15.3,2.5c7,0.8 8.1,7.9 8.1,7.9c0,0 -48.9,14.5 -51.2,15.1Z" style="fill:url(#_Radial13);"/><path d="M215.2,155.9c-8,2.2 -15.9,-1.5 -20.2,-6.1c-8.1,-9 -14.9,-24.2 -16.1,-26.3c1.6,0.2 3.5,0.9 5.5,1.9c8.2,3.7 19.1,11.7 22.2,12.3c3.9,0.8 59.8,3.1 59.8,3.1c0,0 -48.9,14.5 -51.2,15.1Z" style="fill:url(#_Radial14);"/><path d="M215.2,155.8c-8,2.2 -15.9,-1.5 -20.2,-6.1c-8.1,-9 -14.9,-24.2 -16.1,-26.3l4,1.4c4.7,9.2 21.6,22.2 33.9,19.8c4.6,-0.9 49.5,-4 49.5,-4c0,0 -48.9,14.5 -51.2,15.1Z" style="fill:url(#_Linear15);"/><path d="M0,27.5c0,0 55.9,43.9 61.4,49.5c4.8,4.8 69.7,13 79.5,16.9c14.4,5.8 34,55.2 58.2,66.3c-3.3,0.6 -15.8,0 -19.5,-2.5c-8.5,-5.9 -31.4,-33 -31.4,-33c-3.3,-3.7 -10.3,-7.5 -13.6,-7.6c0,0 -61.2,-1.7 -62.7,-2.8c-2,-1.4 -71.9,-86.7 -71.9,-86.7Z" style="fill:url(#_Linear16);"/><path d="M0,27.5c0,0 63.4,61.1 69,66.6c4.8,4.8 59.6,7.1 71.4,13.1c8.8,4.5 40.5,54.2 58.7,53c3.4,-0.2 -14.1,1.3 -19.5,-2.5c-8.5,-5.9 -31.4,-33 -31.4,-33c-3.3,-3.7 -10.3,-7.5 -13.6,-7.6c0,0 -61.2,-1.7 -62.7,-2.8c-2,-1.4 -71.9,-86.7 -71.9,-86.7Z" style="fill:#805b07;"/><path d="M79.7,123.5c0,0 39.3,-0 50.9,-0c6.6,0 13.8,5.2 17.8,10.5c2.1,2.8 21.4,27.1 30.5,32.4c0.9,0.5 -33.1,10.5 -42,12.6c-6.8,1.6 -13.1,-2.4 -14.2,-3.5c-9.3,-9.5 -43.1,-51.9 -43.1,-51.9Z" style="fill:url(#_Radial17);"/><path d="M79.7,123.5c0,0 32,25.1 42.7,33.3c2.2,1.7 21.4,-1.6 25.7,-0.8c3.1,0.6 14.4,7.2 21.1,9.2c2.3,0.7 7.3,-0.3 9.6,1c0.9,0.5 -33.1,10.5 -42,12.6c-6.8,1.6 -13.1,-2.4 -14.2,-3.5c-9.3,-9.5 -43.1,-51.9 -43.1,-51.9Z" style="fill:#ab8b3f;"/></g></g></g><defs><linearGradient id="_Linear2" x1="0" y1="0" x2="1" y2="0" gradientUnits="userSpaceOnUse" gradientTransform="matrix(-60.897892,3.024406,-0.845823,-40.880073,214.199284,40.554278)"><stop offset="0" style="stop-color:#72501d;stop-opacity:1"/><stop offset="1" style="stop-color:#896529;stop-opacity:1"/></linearGradient><linearGradient id="_Linear3" x1="0" y1="0" x2="1" y2="0" gradientUnits="userSpaceOnUse" gradientTransform="matrix(37.434382,-11.158228,14.297776,47.967152,59.430129,183.014845)"><stop offset="0" style="stop-color:#d5b261;stop-opacity:1"/><stop offset="1" style="stop-color:#c39f4b;stop-opacity:1"/></linearGradient><linearGradient id="_Linear4" x1="0" y1="0" x2="1" y2="0" gradientUnits="userSpaceOnUse" gradientTransform="matrix(-27.933087,0.895409,-0.387968,-12.103005,113.907513,185.558019)"><stop offset="0" style="stop-color:#72501d;stop-opacity:1"/><stop offset="1" style="stop-color:#896529;stop-opacity:1"/></linearGradient><radialGradient id="_Radial5" cx="0" cy="0" r="1" gradientUnits="userSpaceOnUse" gradientTransform="matrix(34.730292,-55.018527,55.018527,34.730292,164.475513,100.944589)"><stop offset="0" style="stop-color:#1546a5;stop-opacity:1"/><stop offset="1" style="stop-color:#050e35;stop-opacity:1"/></radialGradient><linearGradient id="_Linear6" x1="0" y1="0" x2="1" y2="0" gradientUnits="userSpaceOnUse" gradientTransform="matrix(-73.488828,-89.346487,89.346487,-73.488828,163.524081,204.788732)"><stop offset="0" style="stop-color:#9b7127;stop-opacity:1"/><stop offset="1" style="stop-color:#2f1a08;stop-opacity:1"/></linearGradient><radialGradient id="_Radial7" cx="0" cy="0" r="1" gradientUnits="userSpaceOnUse" gradientTransform="matrix(-40.236608,177.326676,-177.326676,-40.236608,210.82776,27.497619)"><stop offset="0" style="stop-color:#b5994d;stop-opacity:1"/><stop offset="1" style="stop-color:#9a7026;stop-opacity:1"/></radialGradient><radialGradient id="_Radial8" cx="0" cy="0" r="1" gradientUnits="userSpaceOnUse" gradientTransform="matrix(-113.112509,76.159078,-76.159078,-113.112509,204.1526,31.464051)"><stop offset="0" style="stop-color:#81602b;stop-opacity:1"/><stop offset="1" style="stop-color:#836028;stop-opacity:1"/></radialGradient><linearGradient id="_Linear9" x1="0" y1="0" x2="1" y2="0" gradientUnits="userSpaceOnUse" gradientTransform="matrix(76.521862,96.567039,-96.567039,76.521862,80.744223,114.995257)"><stop offset="0" style="stop-color:#321c05;stop-opacity:1"/><stop offset="1" style="stop-color:#9f7123;stop-opacity:1"/></linearGradient><linearGradient id="_Linear10" x1="0" y1="0" x2="1" y2="0" gradientUnits="userSpaceOnUse" gradientTransform="matrix(48.873421,-202.178529,202.178529,48.873421,175.330652,215.193357)"><stop offset="0" style="stop-color:#9e7325;stop-opacity:1"/><stop offset="1" style="stop-color:#e6d085;stop-opacity:1"/></linearGradient><linearGradient id="_Linear11" x1="0" y1="0" x2="1" y2="0" gradientUnits="userSpaceOnUse" gradientTransform="matrix(139.847013,-94.628462,94.628462,139.847013,76.228295,107.62313)"><stop offset="0" style="stop-color:#311b03;stop-opacity:1"/><stop offset="1" style="stop-color:#e9d38a;stop-opacity:1"/></linearGradient><linearGradient id="_Linear12" x1="0" y1="0" x2="1" y2="0" gradientUnits="userSpaceOnUse" gradientTransform="matrix(-21.594434,80.503101,-80.503101,-21.594434,128.628856,71.324669)"><stop offset="0" style="stop-color:#f6e59d;stop-opacity:1"/><stop offset="1" style="stop-color:#ccaa53;stop-opacity:1"/></linearGradient><radialGradient id="_Radial13" cx="0" cy="0" r="1" gradientUnits="userSpaceOnUse" gradientTransform="matrix(-38.286702,13.956878,-13.956878,-38.286702,240.610921,131.011471)"><stop offset="0" style="stop-color:#f6e59d;stop-opacity:1"/><stop offset="1" style="stop-color:#ccaa53;stop-opacity:1"/></radialGradient><radialGradient id="_Radial14" cx="0" cy="0" r="1" gradientUnits="userSpaceOnUse" gradientTransform="matrix(-38.286702,13.956878,-13.956878,-38.286702,240.610921,131.011471)"><stop offset="0" style="stop-color:#8f6d30;stop-opacity:1"/><stop offset="1" style="stop-color:#926e30;stop-opacity:1"/></radialGradient><linearGradient id="_Linear15" x1="0" y1="0" x2="1" y2="0" gradientUnits="userSpaceOnUse" gradientTransform="matrix(-21.594434,80.503101,-80.503101,-21.594434,128.548053,71.045768)"><stop offset="0" style="stop-color:#6f5020;stop-opacity:1"/><stop offset="1" style="stop-color:#705021;stop-opacity:1"/></linearGradient><linearGradient id="_Linear16" x1="0" y1="0" x2="1" y2="0" gradientUnits="userSpaceOnUse" gradientTransform="matrix(-10.016217,33.951614,-33.951614,-10.016217,121.15311,89.53527)"><stop offset="0" style="stop-color:#a4833e;stop-opacity:1"/><stop offset="1" style="stop-color:#9d793b;stop-opacity:1"/></linearGradient><radialGradient id="_Radial17" cx="0" cy="0" r="1" gradientUnits="userSpaceOnUse" gradientTransform="matrix(-24.564318,40.705312,-40.705312,-24.564318,135.044802,127.415243)"><stop offset="0" style="stop-color:#f3dd99;stop-opacity:1"/><stop offset="0.1" style="stop-color:#eee099;stop-opacity:1"/><stop offset="1" style="stop-color:#cdaa56;stop-opacity:1"/></radialGradient></defs></svg>