<?xml version="1.0" encoding="UTF-8" standalone="no"?><!DOCTYPE svg PUBLIC "-//W3C//DTD SVG 1.1//EN" "http://www.w3.org/Graphics/SVG/1.1/DTD/svg11.dtd"><svg width="100%" height="100%" viewBox="0 0 1526 218" version="1.1" xmlns="http://www.w3.org/2000/svg" xmlns:xlink="http://www.w3.org/1999/xlink" xml:space="preserve" xmlns:serif="http://www.serif.com/" style="fill-rule:evenodd;clip-rule:evenodd;stroke-linejoin:round;stroke-miterlimit:1.5;"><rect id="Artboard1" x="0" y="0" width="1525.2" height="217.3" style="fill:none;"/><g><path d="M205.9,2.8l-144,95.2l95.9,115.6l48.1,-210.8Z" style="fill:url(#_Linear1);"/><path d="M183.4,35.8l-33,143.2" style="fill:none;"/><path d="M193.9,20.3l-120.8,79.9l11.2,0.9" style="fill:none;"/><path d="M78.8,127.9l-34.9,57.1l65.9,-19.8l-31,-37.3Z" style="fill:#ab8b3f;"/><path d="M78.8,127.9l9.6,28.5l21.3,8.8l-31,-37.3l0.1,-0Z" style="fill:#ab8b3f;"/><path d="M78.8,126.4l-34.9,57.1l44.5,-28.5l-9.6,-28.5l-0,-0.1Z" style="fill:url(#_Linear2);"/><path d="M88.4,156.4l-44.5,28.5l65.9,-19.8l-21.3,-8.8l-0.1,0.1Z" style="fill:url(#_Linear3);"/><path d="M73.2,100.2l120.8,-79.9l-10.2,15.1" style="fill:none;"/><path d="M183.7,35.4l-33.1,146.2l-66.3,-80.4l99.4,-65.7l0,-0.1Z" style="fill:url(#_Radial4);"/><path d="M153.7,198l-80.5,-97.7l11.2,0.9l66.3,80.4l3.1,16.4l-0.1,-0Z" style="fill:url(#_Linear5);"/><path d="M193.9,20.3l-40.3,177.6l-3.1,-16.4l33.1,-146.2l10.2,-15l0.1,-0Z" style="fill:url(#_Radial6);"/><path d="M73.2,100.2l11.2,0.9l99.4,-65.7l10.2,-15l-120.8,79.9l0,-0.1Z" style="fill:url(#_Radial7);"/><path d="M61.9,98.1l11.3,2.1l80.5,97.7l4.2,16.7l-96,-116.5Z" style="fill:url(#_Linear8);"/><path d="M193.9,20.3l11.9,-17.5l-48,211.8l-4.2,-16.7l40.3,-177.6Z" style="fill:url(#_Linear9);"/><path d="M205.9,2.8l-144,95.2l11.3,2.1l120.8,-79.9l11.9,-17.5l0,0.1Z" style="fill:url(#_Linear10);"/><path d="M2.7,27.2c0,0 124.1,36 129,40.9c4.3,4.3 29.4,44.3 29.4,44.3l47,0c7.2,0 7.7,5.3 9.8,6c3.9,1.4 9.7,1.8 13.5,2.2c6.2,0.7 7.2,7 7.2,7c0,0 -57.6,16.6 -59.7,17c-3,0.6 -14,0 -17.2,-2.2c-7.5,-5.2 -27.8,-29.3 -27.8,-29.3c-2.9,-3.3 -9.2,-6.6 -12,-6.8c0,0 -54.1,-1.5 -55.5,-2.4c-1.7,-1.2 -63.7,-76.7 -63.7,-76.7Z" style="fill:url(#_Linear11);"/><path d="M193.1,140.8c-7.1,2 -14.1,-1.3 -17.9,-5.4c-7.2,-7.9 -13.2,-21.4 -14.2,-23.2l47,0c7.2,0 7.7,5.3 9.8,6c3.9,1.4 9.7,1.8 13.5,2.2c6.2,0.7 7.2,7 7.2,7c0,0 -43.3,12.8 -45.3,13.4l-0.1,0Z" style="fill:url(#_Radial12);"/><path d="M193.1,140.8c-7.1,2 -14.1,-1.3 -17.9,-5.4c-7.2,-7.9 -13.2,-21.4 -14.2,-23.2c1.4,0.2 3.1,0.8 4.9,1.6c7.3,3.3 16.9,10.3 19.6,10.9c3.5,0.7 52.9,2.7 52.9,2.7c0,0 -43.3,12.8 -45.3,13.4Z" style="fill:url(#_Radial13);"/><path d="M193.1,140.7c-7.1,2 -14.1,-1.3 -17.9,-5.4c-7.2,-7.9 -13.2,-21.4 -14.2,-23.2l3.6,1.2c4.2,8.1 19.1,19.6 30,17.6c4,-0.8 43.8,-3.5 43.8,-3.5c0,0 -43.3,12.8 -45.3,13.4l0,-0.1Z" style="fill:url(#_Linear14);"/><path d="M2.7,27.2c0,0 49.5,38.9 54.4,43.8c4.3,4.3 61.7,11.5 70.3,15c12.8,5.1 30.1,48.9 51.5,58.7c-3,0.6 -14,0 -17.2,-2.2c-7.5,-5.2 -27.8,-29.3 -27.8,-29.3c-2.9,-3.3 -9.2,-6.6 -12,-6.8c0,0 -54.1,-1.5 -55.5,-2.4c-1.7,-1.2 -63.7,-76.7 -63.7,-76.7l-0,-0.1Z" style="fill:url(#_Linear15);"/><path d="M2.7,27.2c0,0 56.1,54 61,58.9c4.3,4.3 52.8,6.3 63.2,11.6c7.8,4 35.8,47.9 52,46.9c3,-0.2 -12.5,1.1 -17.2,-2.2c-7.5,-5.2 -27.8,-29.3 -27.8,-29.3c-2.9,-3.3 -9.2,-6.6 -12,-6.8c0,0 -54.1,-1.5 -55.5,-2.4c-1.7,-1.2 -63.7,-76.7 -63.7,-76.7Z" style="fill:#805b07;"/><path d="M73.3,112.1l45,0c5.8,0 12.2,4.6 15.7,9.3c1.9,2.5 18.9,24 27,28.7c0.8,0.5 -29.3,9.3 -37.1,11.2c-6,1.4 -11.6,-2.1 -12.5,-3.1c-8.2,-8.4 -38.1,-45.9 -38.1,-45.9l-0,-0.2Z" style="fill:url(#_Radial16);"/><path d="M73.3,112.1c0,0 28.3,22.2 37.8,29.5c2,1.5 18.9,-1.4 22.8,-0.7c2.8,0.5 12.7,6.4 18.7,8.2c2,0.6 6.4,-0.2 8.5,0.9c0.8,0.5 -29.3,9.3 -37.1,11.2c-6,1.4 -11.6,-2.1 -12.5,-3.1c-8.2,-8.4 -38.1,-45.9 -38.1,-45.9l-0.1,-0.1Z" style="fill:#ab8b3f;"/></g><path d="M1516.1,158.9l-1254.6,0" style="fill:none;stroke:#cca957;stroke-width:6.2px;"/><path d="M1516.1,77.8l-1254.6,0" style="fill:none;stroke:#cca957;stroke-width:6.2px;"/><g><text x="268.9px" y="149px" style="font-family:'Verdana-BoldItalic', 'Verdana', sans-serif;font-weight:700;font-style:italic;font-size:83.4px;fill:#0c2664;">Federal Beneﬁts Exchange</text></g><defs><linearGradient id="_Linear1" x1="0" y1="0" x2="1" y2="0" gradientUnits="userSpaceOnUse" gradientTransform="matrix(-53.896632,2.676699,-2.676699,-53.896632,192.264669,38.715255)"><stop offset="0" style="stop-color:#72501d;stop-opacity:1"/><stop offset="1" style="stop-color:#896529;stop-opacity:1"/></linearGradient><linearGradient id="_Linear2" x1="0" y1="0" x2="1" y2="0" gradientUnits="userSpaceOnUse" gradientTransform="matrix(33.130656,-9.875398,9.875398,33.130656,55.28889,164.797529)"><stop offset="0" style="stop-color:#d5b261;stop-opacity:1"/><stop offset="1" style="stop-color:#c39f4b;stop-opacity:1"/></linearGradient><linearGradient id="_Linear3" x1="0" y1="0" x2="1" y2="0" gradientUnits="userSpaceOnUse" gradientTransform="matrix(-24.721698,0.792467,-0.792467,-24.721698,103.503162,167.048322)"><stop offset="0" style="stop-color:#72501d;stop-opacity:1"/><stop offset="1" style="stop-color:#896529;stop-opacity:1"/></linearGradient><radialGradient id="_Radial4" cx="0" cy="0" r="1" gradientUnits="userSpaceOnUse" gradientTransform="matrix(30.737448,-48.693202,48.693202,30.737448,148.257501,92.16266)"><stop offset="0" style="stop-color:#1546a5;stop-opacity:1"/><stop offset="1" style="stop-color:#050e35;stop-opacity:1"/></radialGradient><linearGradient id="_Linear5" x1="0" y1="0" x2="1" y2="0" gradientUnits="userSpaceOnUse" gradientTransform="matrix(-65.040024,-79.074571,79.074571,-65.040024,147.415452,184.068134)"><stop offset="0" style="stop-color:#9b7127;stop-opacity:1"/><stop offset="1" style="stop-color:#2f1a08;stop-opacity:1"/></linearGradient><radialGradient id="_Radial6" cx="0" cy="0" r="1" gradientUnits="userSpaceOnUse" gradientTransform="matrix(-35.610718,156.939925,-156.939925,-35.610718,189.28076,27.159683)"><stop offset="0" style="stop-color:#b5994d;stop-opacity:1"/><stop offset="1" style="stop-color:#9a7026;stop-opacity:1"/></radialGradient><radialGradient id="_Radial7" cx="0" cy="0" r="1" gradientUnits="userSpaceOnUse" gradientTransform="matrix(-100.108281,67.403283,-67.403283,-100.108281,183.373025,30.670105)"><stop offset="0" style="stop-color:#81602b;stop-opacity:1"/><stop offset="1" style="stop-color:#836028;stop-opacity:1"/></radialGradient><linearGradient id="_Linear8" x1="0" y1="0" x2="1" y2="0" gradientUnits="userSpaceOnUse" gradientTransform="matrix(67.724358,85.464998,-85.464998,67.724358,74.152563,104.597963)"><stop offset="0" style="stop-color:#321c05;stop-opacity:1"/><stop offset="1" style="stop-color:#9f7123;stop-opacity:1"/></linearGradient><linearGradient id="_Linear9" x1="0" y1="0" x2="1" y2="0" gradientUnits="userSpaceOnUse" gradientTransform="matrix(43.254581,-178.93463,178.93463,43.254581,157.864656,193.276568)"><stop offset="0" style="stop-color:#9e7325;stop-opacity:1"/><stop offset="1" style="stop-color:#e6d085;stop-opacity:1"/></linearGradient><linearGradient id="_Linear10" x1="0" y1="0" x2="1" y2="0" gradientUnits="userSpaceOnUse" gradientTransform="matrix(123.769194,-83.749293,83.749293,123.769194,70.155818,98.073388)"><stop offset="0" style="stop-color:#311b03;stop-opacity:1"/><stop offset="1" style="stop-color:#e9d38a;stop-opacity:1"/></linearGradient><linearGradient id="_Linear11" x1="0" y1="0" x2="1" y2="0" gradientUnits="userSpaceOnUse" gradientTransform="matrix(-19.111782,71.247885,-71.247885,-19.111782,116.532033,65.94806)"><stop offset="0" style="stop-color:#f6e59d;stop-opacity:1"/><stop offset="1" style="stop-color:#ccaa53;stop-opacity:1"/></linearGradient><radialGradient id="_Radial12" cx="0" cy="0" r="1" gradientUnits="userSpaceOnUse" gradientTransform="matrix(-33.884987,12.352295,-12.352295,-33.884987,215.639835,118.772837)"><stop offset="0" style="stop-color:#f6e59d;stop-opacity:1"/><stop offset="1" style="stop-color:#ccaa53;stop-opacity:1"/></radialGradient><radialGradient id="_Radial13" cx="0" cy="0" r="1" gradientUnits="userSpaceOnUse" gradientTransform="matrix(-33.884987,12.352295,-12.352295,-33.884987,215.639835,118.772837)"><stop offset="0" style="stop-color:#8f6d30;stop-opacity:1"/><stop offset="1" style="stop-color:#926e30;stop-opacity:1"/></radialGradient><linearGradient id="_Linear14" x1="0" y1="0" x2="1" y2="0" gradientUnits="userSpaceOnUse" gradientTransform="matrix(-19.111782,71.247885,-71.247885,-19.111782,116.460521,65.701223)"><stop offset="0" style="stop-color:#6f5020;stop-opacity:1"/><stop offset="1" style="stop-color:#705021;stop-opacity:1"/></linearGradient><linearGradient id="_Linear15" x1="0" y1="0" x2="1" y2="0" gradientUnits="userSpaceOnUse" gradientTransform="matrix(-8.86468,30.048292,-30.048292,-8.86468,109.915754,82.065039)"><stop offset="0" style="stop-color:#a4833e;stop-opacity:1"/><stop offset="1" style="stop-color:#9d793b;stop-opacity:1"/></linearGradient><radialGradient id="_Radial16" cx="0" cy="0" r="1" gradientUnits="userSpaceOnUse" gradientTransform="matrix(-21.740227,36.025536,-36.025536,-21.740227,122.210356,115.590058)"><stop offset="0" style="stop-color:#f3dd99;stop-opacity:1"/><stop offset="0.1" style="stop-color:#eee099;stop-opacity:1"/><stop offset="1" style="stop-color:#cdaa56;stop-opacity:1"/></radialGradient></defs></svg>