<?xml version="1.0" encoding="UTF-8" standalone="no"?><!DOCTYPE svg PUBLIC "-//W3C//DTD SVG 1.1//EN" "http://www.w3.org/Graphics/SVG/1.1/DTD/svg11.dtd"><svg width="100%" height="100%" viewBox="0 0 1526 218" version="1.1" xmlns="http://www.w3.org/2000/svg" xmlns:xlink="http://www.w3.org/1999/xlink" xml:space="preserve" xmlns:serif="http://www.serif.com/" style="fill-rule:evenodd;clip-rule:evenodd;stroke-linejoin:round;stroke-miterlimit:1.5;"><rect id="Artboard1" x="0" y="-0" width="1525.2" height="217.3" style="fill:none;"/><g><path d="M205.9,2.8l-144,95.2l95.9,115.6l48.1,-210.8Z" style="fill:url(#_Linear1);"/><path d="M183.4,35.8l-33,143.2" style="fill:none;"/><path d="M193.9,20.3l-120.8,79.9l11.2,0.9" style="fill:none;"/><path d="M78.8,127.9l-34.9,57.1l65.9,-19.8l-31,-37.3Z" style="fill:#ab8b3f;"/><path d="M78.8,127.9l9.6,28.5l21.3,8.8l-31,-37.3Z" style="fill:#ab8b3f;"/><path d="M78.8,126.4l-34.9,57.1l44.5,-28.5l-9.6,-28.5Z" style="fill:url(#_Linear2);"/><path d="M88.4,156.4l-44.5,28.5l65.9,-19.8l-21.3,-8.8Z" style="fill:url(#_Linear3);"/><path d="M73.2,100.2l120.8,-79.9l-10.2,15.1" style="fill:none;"/><path d="M183.7,35.4l-33.1,146.2l-66.3,-80.4l99.4,-65.7Z" style="fill:url(#_Radial4);"/><path d="M153.7,198l-80.5,-97.7l11.2,0.9l66.3,80.4l3.1,16.4Z" style="fill:url(#_Linear5);"/><path d="M193.9,20.3l-40.3,177.6l-3.1,-16.4l33.1,-146.2l10.2,-15Z" style="fill:url(#_Radial6);"/><path d="M73.2,100.2l11.2,0.9l99.4,-65.7l10.2,-15l-120.8,79.9Z" style="fill:url(#_Radial7);"/><path d="M61.9,98.1l11.3,2.1l80.5,97.7l4.2,16.7l-96,-116.5Z" style="fill:url(#_Linear8);"/><path d="M193.9,20.3l11.9,-17.5l-48,211.8l-4.2,-16.7l40.3,-177.6Z" style="fill:url(#_Linear9);"/><path d="M205.9,2.8l-144,95.2l11.3,2.1l120.8,-79.9l11.9,-17.5Z" style="fill:url(#_Linear10);"/><path d="M2.7,27.2c0,0 124.1,36 129,40.9c4.3,4.3 29.4,44.3 29.4,44.3l47,-0c7.2,0 7.7,5.3 9.8,6c3.9,1.4 9.7,1.8 13.5,2.2c6.2,0.7 7.2,7 7.2,7c0,0 -57.6,16.6 -59.7,17c-3,0.6 -14,0 -17.2,-2.2c-7.5,-5.2 -27.8,-29.3 -27.8,-29.3c-2.9,-3.3 -9.2,-6.6 -12,-6.8c0,0 -54.1,-1.5 -55.5,-2.4c-1.7,-1.2 -63.7,-76.7 -63.7,-76.7Z" style="fill:url(#_Linear11);"/><path d="M193.1,140.8c-7.1,2 -14.1,-1.3 -17.9,-5.4c-7.2,-7.9 -13.2,-21.4 -14.2,-23.2l47,-0c7.2,0 7.7,5.3 9.8,6c3.9,1.4 9.7,1.8 13.5,2.2c6.2,0.7 7.2,7 7.2,7c0,0 -43.3,12.8 -45.3,13.4Z" style="fill:url(#_Radial12);"/><path d="M193.1,140.8c-7.1,2 -14.1,-1.3 -17.9,-5.4c-7.2,-7.9 -13.2,-21.4 -14.2,-23.2c1.4,0.2 3.1,0.8 4.9,1.6c7.3,3.3 16.9,10.3 19.6,10.9c3.5,0.7 52.9,2.7 52.9,2.7c0,0 -43.3,12.8 -45.3,13.4Z" style="fill:url(#_Radial13);"/><path d="M193.1,140.7c-7.1,2 -14.1,-1.3 -17.9,-5.4c-7.2,-7.9 -13.2,-21.4 -14.2,-23.2l3.6,1.2c4.2,8.1 19.1,19.6 30,17.6c4,-0.8 43.8,-3.5 43.8,-3.5c0,0 -43.3,12.8 -45.3,13.4Z" style="fill:url(#_Linear14);"/><path d="M2.7,27.2c0,0 49.5,38.9 54.4,43.8c4.3,4.3 61.7,11.5 70.3,15c12.8,5.1 30.1,48.9 51.5,58.7c-3,0.6 -14,0 -17.2,-2.2c-7.5,-5.2 -27.8,-29.3 -27.8,-29.3c-2.9,-3.3 -9.2,-6.6 -12,-6.8c0,0 -54.1,-1.5 -55.5,-2.4c-1.7,-1.2 -63.7,-76.7 -63.7,-76.7Z" style="fill:url(#_Linear15);"/><path d="M2.7,27.2c0,0 56.1,54 61,58.9c4.3,4.3 52.8,6.3 63.2,11.6c7.8,4 35.8,47.9 52,46.9c3,-0.2 -12.5,1.1 -17.2,-2.2c-7.5,-5.2 -27.8,-29.3 -27.8,-29.3c-2.9,-3.3 -9.2,-6.6 -12,-6.8c0,0 -54.1,-1.5 -55.5,-2.4c-1.7,-1.2 -63.7,-76.7 -63.7,-76.7Z" style="fill:#805b07;"/><path d="M73.3,112.1c0,0 34.8,-0 45,-0c5.8,0 12.2,4.6 15.7,9.3c1.9,2.5 18.9,24 27,28.7c0.8,0.5 -29.3,9.3 -37.1,11.2c-6,1.4 -11.6,-2.1 -12.5,-3.1c-8.2,-8.4 -38.1,-45.9 -38.1,-45.9Z" style="fill:url(#_Radial16);"/><path d="M73.3,112.1c0,0 28.3,22.2 37.8,29.5c2,1.5 18.9,-1.4 22.8,-0.7c2.8,0.5 12.7,6.4 18.7,8.2c2,0.6 6.4,-0.2 8.5,0.9c0.8,0.5 -29.3,9.3 -37.1,11.2c-6,1.4 -11.6,-2.1 -12.5,-3.1c-8.2,-8.4 -38.1,-45.9 -38.1,-45.9Z" style="fill:#ab8b3f;"/></g><path d="M1516.1,158.9l-1254.6,0" style="fill:none;stroke:#cca957;stroke-width:6.2px;"/><path d="M1516.1,77.8l-1254.6,0" style="fill:none;stroke:#cca957;stroke-width:6.2px;"/><g transform="matrix(1.667573,0,0,1.667573,-1689.296619,-2126.034925)"><g transform="matrix(50,0,0,50,1540.704767,1364.332995)"></g><g transform="matrix(50,0,0,50,1560.810879,1364.332995)"></g><g transform="matrix(50,0,0,50,1916.437189,1364.332995)"></g><text x="1174.3px" y="1364.3px" style="font-family:'Verdana-BoldItalic', 'Verdana', sans-serif;font-weight:700;font-style:italic;font-size:50px;fill:#fff;">Federal Beneﬁts Exchange</text><path d="M1432.8,1345.1c0.9,0.5 1.7,1.1 2.3,1.7c1.2,1.3 1.9,3.1 1.9,5.4c0,4.2 -1.7,7.6 -5.2,9.9c-3.3,2.3 -7.9,3.4 -14,3.4l-17.3,0l9,-38.8l14.2,-0c4.7,0 8.2,0.8 10.7,2.3c2.7,1.7 4,4 4,7.1c0,2.5 -0.7,4.6 -2.1,6.3c-0.9,1 -2,1.9 -3.5,2.6Zm4.4,-8.9c0,-2.6 -1.2,-4.6 -3.5,-6.1c-2.3,-1.4 -5.7,-2.2 -10,-2.2l-13.3,0l-8.4,36.4l15.7,0c5.7,0 10.2,-1.1 13.3,-3.2c3.1,-2.1 4.7,-5.1 4.7,-9c0,-2 -0.5,-3.5 -1.5,-4.5c-1,-1.1 -2.5,-1.9 -4.5,-2.5l0,-0.2c2.5,-0.7 4.3,-1.8 5.6,-3.3c1.2,-1.4 1.8,-3.3 1.8,-5.5Zm-11,16.2c0,1.7 -0.7,3 -2.2,3.9c-1.5,0.9 -3.6,1.3 -6.3,1.3l-4.7,0l2.1,-9.1l4.9,0c2.2,0 3.8,0.3 4.8,0.9c1,0.6 1.5,1.6 1.5,2.9Zm-1.2,0c0,-0.8 -0.3,-1.5 -0.9,-1.9c-0.9,-0.5 -2.3,-0.7 -4.2,-0.7l-4,-0l-1.5,6.7l3.2,0c2.5,0 4.4,-0.4 5.7,-1.2c1.1,-0.7 1.6,-1.6 1.6,-2.9Zm2.2,-14.7c0,1.5 -0.6,2.7 -1.7,3.5c-1.1,0.8 -2.7,1.2 -4.8,1.2l-4.3,0l1.8,-7.7l4.2,0c1.5,0 2.7,0.2 3.5,0.7c0.8,0.5 1.3,1.3 1.3,2.3Zm-1.2,0c0,-0.6 -0.2,-1 -0.7,-1.3c-0.7,-0.4 -1.7,-0.6 -2.9,-0.6l-3.3,0l-1.2,5.3l2.8,0c1.8,0 3.1,-0.3 4.1,-1c0.8,-0.6 1.2,-1.4 1.2,-2.5Zm-207.6,15.8c0.1,1.2 0.6,2.2 1.5,2.9c1.2,0.9 3,1.3 5.4,1.3c1.8,0 3.4,-0.3 5,-0.9c1.6,-0.6 3.1,-1.3 4.3,-2.1l0.3,-0.2l2.8,0l-2.1,9.1l-0.6,0.2c-1.8,0.8 -3.7,1.4 -5.6,1.8c-2,0.4 -4.1,0.6 -6.3,0.6c-5,0 -8.9,-1.2 -11.6,-3.4c-2.8,-2.3 -4.3,-5.5 -4.3,-9.5c0,-2.7 0.4,-5.1 1.3,-7.3c0.9,-2.2 2.2,-4.2 3.8,-5.9c1.6,-1.6 3.6,-2.9 6,-3.9c2.4,-0.9 5,-1.4 7.8,-1.4c4.4,0 7.7,1 10,2.7c2.3,1.9 3.6,4.6 3.6,8.3c0,1.2 -0.1,2.4 -0.4,3.5c-0.2,1.1 -0.5,2.2 -0.9,3.3l-0.3,0.8l-20,0Zm4.7,11.6c2.1,0 4.1,-0.2 6,-0.6c1.9,-0.4 3.7,-0.9 5.4,-1.7l1.6,-7.1l-1,0c-1.3,0.8 -2.8,1.5 -4.5,2.2c-1.7,0.7 -3.5,1 -5.5,1c-2.8,0 -4.8,-0.5 -6.1,-1.6c-1.3,-1.1 -2,-2.6 -2,-4.5l0,-0.6l20.4,0c0.4,-1 0.6,-2.1 0.9,-3.1c0.2,-1.1 0.3,-2.1 0.3,-3.2c0,-3.2 -1,-5.7 -3.1,-7.3c-2.1,-1.7 -5.2,-2.5 -9.2,-2.5c-2.7,0 -5.2,0.4 -7.4,1.3c-2.2,0.9 -4.1,2.1 -5.6,3.6c-1.6,1.6 -2.8,3.4 -3.6,5.5c-0.8,2.1 -1.2,4.4 -1.2,6.9c0,3.6 1.3,6.5 3.8,8.6c2.5,2.1 6.1,3.1 10.8,3.1Zm6.7,-18l-11.8,0c0.6,-1.7 1.6,-3.1 2.8,-4.1c1.2,-1 2.7,-1.5 4.6,-1.5c1.5,0 2.6,0.3 3.4,1c0.8,0.7 1.2,1.7 1.2,3c0,0.3 -0,0.5 -0,0.8c-0,0.2 -0.1,0.5 -0.1,0.8Zm-1.1,-1.2c0,-0.1 0,-0.2 0,-0.4c0,-0.9 -0.2,-1.6 -0.8,-2c-0.6,-0.5 -1.5,-0.7 -2.7,-0.7c-1.5,0 -2.8,0.4 -3.8,1.2c-0.7,0.5 -1.2,1.2 -1.7,1.9l8.9,-0Zm28.8,18.2c-0.6,0.4 -1.3,0.8 -2,1.1l-0,0c-0.8,0.4 -1.6,0.6 -2.4,0.8c-0.8,0.2 -1.7,0.3 -2.8,0.3c-3,0 -5.4,-1 -7.2,-3c-1.8,-1.9 -2.7,-4.6 -2.7,-8.2c0,-2.8 0.4,-5.3 1.3,-7.7c0.9,-2.4 2.1,-4.6 3.7,-6.4l0,-0c1.5,-1.8 3.4,-3.3 5.4,-4.4c2.1,-1.1 4.4,-1.6 6.7,-1.6c1.6,0 3,0.2 4.2,0.5c0.7,0.2 1.5,0.5 2.3,0.8l2.6,-11.1l11.3,0l-9.3,40.4l-11.3,0l0.3,-1.4Zm18.8,-37.8l-8.8,0l-2.7,11.7c-1.2,-0.6 -2.3,-1.1 -3.4,-1.4c-1.1,-0.3 -2.4,-0.5 -3.9,-0.5c-2.1,0 -4.2,0.5 -6.1,1.5c-2,1 -3.6,2.4 -5.1,4.1c-1.5,1.8 -2.6,3.8 -3.5,6.1c-0.8,2.3 -1.3,4.7 -1.3,7.3c0,3.2 0.8,5.6 2.4,7.3c1.6,1.7 3.7,2.6 6.4,2.6c1,0 1.8,-0.1 2.6,-0.2c0.7,-0.2 1.4,-0.4 2.2,-0.7c0.8,-0.4 1.5,-0.8 2.1,-1.2c0.6,-0.4 1.4,-0.9 2.2,-1.5l-0.7,2.9l8.8,0l8.8,-38Zm-12.8,17l-3.1,13.5c-0.8,0.5 -1.6,0.9 -2.5,1.3c-0.9,0.4 -1.7,0.5 -2.5,0.5c-1.6,0 -2.7,-0.4 -3.5,-1.1c-0.8,-0.7 -1.1,-1.9 -1.1,-3.6c0,-1.4 0.2,-2.8 0.6,-4.3c0.4,-1.5 1,-2.7 1.7,-3.7c0.8,-1.1 1.7,-1.9 2.9,-2.5c1.1,-0.6 2.4,-0.9 3.8,-0.9c0.6,0 1.3,0.1 2,0.3c0.8,0.2 1.4,0.4 1.9,0.6Zm-1.4,0.7c-0.2,-0.1 -0.5,-0.1 -0.7,-0.2c-0.7,-0.2 -1.2,-0.2 -1.7,-0.2c-1.2,0 -2.3,0.3 -3.2,0.8c-1,0.5 -1.8,1.3 -2.5,2.2c-0.6,0.9 -1.1,2 -1.5,3.3c-0.4,1.4 -0.6,2.7 -0.6,4c0,1.2 0.2,2.2 0.8,2.7c0.6,0.6 1.5,0.8 2.7,0.8c0.7,0 1.3,-0.2 2.1,-0.4c0.7,-0.3 1.3,-0.6 1.9,-0.9l2.8,-11.9Zm24.4,9.4c0.1,1.2 0.6,2.2 1.5,2.9c1.2,0.9 3,1.3 5.4,1.3c1.8,0 3.4,-0.3 5,-0.9c1.6,-0.6 3.1,-1.3 4.3,-2.1l0.3,-0.2l2.8,0l-2.1,9.1l-0.6,0.2c-1.8,0.8 -3.7,1.4 -5.6,1.8c-2,0.4 -4.1,0.6 -6.3,0.6c-5,0 -8.9,-1.2 -11.6,-3.4c-2.8,-2.3 -4.3,-5.5 -4.3,-9.5c0,-2.7 0.4,-5.1 1.3,-7.3c0.9,-2.2 2.2,-4.2 3.8,-5.9c1.6,-1.6 3.6,-2.9 6,-3.9c2.4,-0.9 5,-1.4 7.8,-1.4c4.4,0 7.7,1 10,2.7c2.3,1.9 3.6,4.6 3.6,8.3c0,1.2 -0.1,2.4 -0.4,3.5c-0.2,1.1 -0.5,2.2 -0.9,3.3l-0.3,0.8l-20,0Zm4.7,11.6c2.1,0 4.1,-0.2 6,-0.6c1.9,-0.4 3.7,-0.9 5.4,-1.7l1.6,-7.1l-1,0c-1.3,0.8 -2.8,1.5 -4.5,2.2c-1.7,0.7 -3.5,1 -5.5,1c-2.8,0 -4.8,-0.5 -6.1,-1.6c-1.3,-1.1 -2,-2.6 -2,-4.5l0,-0.6l20.4,0c0.4,-1 0.6,-2.1 0.9,-3.1c0.2,-1.1 0.3,-2.1 0.3,-3.2c0,-3.2 -1,-5.7 -3.1,-7.3c-2.1,-1.7 -5.2,-2.5 -9.2,-2.5c-2.7,0 -5.2,0.4 -7.4,1.3c-2.2,0.9 -4.1,2.1 -5.6,3.6c-1.6,1.6 -2.8,3.4 -3.6,5.5c-0.8,2.1 -1.2,4.4 -1.2,6.9c0,3.6 1.3,6.5 3.8,8.6c2.5,2.1 6.1,3.1 10.8,3.1Zm6.7,-18l-11.8,0c0.6,-1.7 1.6,-3.1 2.8,-4.1c1.2,-1 2.7,-1.5 4.6,-1.5c1.5,0 2.6,0.3 3.4,1c0.8,0.7 1.2,1.7 1.2,3c0,0.3 -0,0.5 -0,0.8c-0,0.2 -0.1,0.5 -0.1,0.8Zm-1.1,-1.2c0,-0.1 0,-0.2 0,-0.4c0,-0.9 -0.2,-1.6 -0.8,-2c-0.6,-0.5 -1.5,-0.7 -2.7,-0.7c-1.5,0 -2.8,0.4 -3.8,1.2c-0.7,0.5 -1.2,1.2 -1.7,1.9l8.9,-0Zm56.7,-0.6l0,-0.1c0,-0.6 -0.3,-1.1 -0.9,-1.3c-1,-0.4 -2.4,-0.6 -4.3,-0.6c-1.4,0 -2.8,0.2 -4.5,0.7c-1.7,0.5 -3,0.9 -3.8,1.2l-0.2,0.1l-2.5,0l1.7,-8.7l0.7,-0.2c1.1,-0.3 2.7,-0.6 4.9,-0.9c2.2,-0.3 4.4,-0.5 6.6,-0.5c4.6,0 7.9,0.6 10,1.8c2.4,1.3 3.6,3.4 3.6,6.3c0,0.4 -0,0.8 -0.1,1.4c-0.1,0.6 -0.1,1.1 -0.3,1.5l-4.5,19.6l-11.2,0l0.3,-1.5c-0.7,0.4 -1.3,0.7 -1.9,1l-0,0c-1,0.4 -1.9,0.7 -2.7,0.9c-0.9,0.2 -2.1,0.3 -3.6,0.3c-2.6,0 -4.7,-0.8 -6.4,-2.2c-1.7,-1.5 -2.6,-3.5 -2.6,-5.9c0,-2.4 0.6,-4.5 1.7,-6.2c1.1,-1.7 2.8,-3 5.1,-4c2,-0.9 4.3,-1.5 7.1,-1.9c2.4,-0.3 4.9,-0.6 7.6,-0.8Zm-2.5,16.2l-0.7,2.9l8.7,0l4.3,-18.7c0.1,-0.4 0.2,-0.8 0.2,-1.4c0.1,-0.5 0.1,-0.9 0.1,-1.3c0,-2.4 -1,-4.1 -3,-5.2c-2,-1.1 -5.2,-1.7 -9.5,-1.7c-2.1,0 -4.3,0.2 -6.4,0.5c-2.1,0.3 -3.7,0.6 -4.8,0.9l-1.3,6.5l0.8,0c0.9,-0.3 2.2,-0.7 3.9,-1.2c1.7,-0.5 3.3,-0.7 4.8,-0.7c2.1,0 3.7,0.2 4.8,0.7c1.1,0.5 1.6,1.3 1.6,2.4c0,0.3 -0,0.5 -0.1,0.7c-0,0.2 -0.1,0.4 -0.1,0.5c-3,0.2 -5.9,0.5 -8.5,0.8c-2.6,0.4 -4.9,1 -6.8,1.8c-2,0.9 -3.5,2.1 -4.6,3.6c-1,1.5 -1.5,3.3 -1.5,5.5c0,2.1 0.7,3.7 2.2,5c1.4,1.3 3.3,1.9 5.6,1.9c1.4,0 2.5,-0.1 3.3,-0.3c0.8,-0.2 1.7,-0.5 2.6,-0.9c0.7,-0.3 1.4,-0.7 2.2,-1.2l2,-1.3Zm2.3,-10l-1.3,5.8c-0.9,0.6 -1.8,1.1 -2.8,1.5c-1,0.4 -1.9,0.6 -2.8,0.6c-1.3,0 -2.3,-0.2 -3,-0.6c-0.7,-0.4 -1,-1 -1,-2c0,-1.1 0.3,-1.9 0.8,-2.6c0.5,-0.7 1.3,-1.2 2.3,-1.5c1,-0.3 2.1,-0.6 3.5,-0.8c1.4,-0.2 2.8,-0.3 4.4,-0.5Zm-1.5,1.3c-0.9,0.1 -1.8,0.2 -2.7,0.3c-1.3,0.2 -2.4,0.4 -3.2,0.7c-0.8,0.3 -1.3,0.6 -1.7,1.1c-0.4,0.5 -0.5,1.1 -0.5,1.8c0,0.4 0.1,0.8 0.4,0.9c0.6,0.3 1.4,0.4 2.4,0.4c0.7,0 1.5,-0.2 2.3,-0.5c0.8,-0.3 1.5,-0.7 2.2,-1.1l0.9,-3.7Zm98.3,0.7c0.1,1.2 0.6,2.2 1.5,2.9c1.2,0.9 3,1.3 5.4,1.3c1.8,0 3.4,-0.3 5,-0.9c1.6,-0.6 3.1,-1.3 4.3,-2.1l0.3,-0.2l2.8,0l-2.1,9.1l-0.6,0.2c-1.8,0.8 -3.7,1.4 -5.6,1.8c-2,0.4 -4.1,0.6 -6.3,0.6c-5,0 -8.9,-1.2 -11.6,-3.4c-2.8,-2.3 -4.3,-5.5 -4.3,-9.5c0,-2.7 0.4,-5.1 1.3,-7.3c0.9,-2.2 2.2,-4.2 3.8,-5.9c1.6,-1.6 3.6,-2.9 6,-3.9c2.4,-0.9 5,-1.4 7.8,-1.4c4.4,0 7.7,1 10,2.7c2.3,1.9 3.6,4.6 3.6,8.3c0,1.2 -0.1,2.4 -0.4,3.5c-0.2,1.1 -0.5,2.2 -0.9,3.3l-0.3,0.8l-20,0Zm4.7,11.6c2.1,0 4.1,-0.2 6,-0.6c1.9,-0.4 3.7,-0.9 5.4,-1.7l1.6,-7.1l-1,0c-1.3,0.8 -2.8,1.5 -4.5,2.2c-1.7,0.7 -3.5,1 -5.5,1c-2.8,0 -4.8,-0.5 -6.1,-1.6c-1.3,-1.1 -2,-2.6 -2,-4.5l0,-0.6l20.4,0c0.4,-1 0.6,-2.1 0.9,-3.1c0.2,-1.1 0.3,-2.1 0.3,-3.2c0,-3.2 -1,-5.7 -3.1,-7.3c-2.1,-1.7 -5.2,-2.5 -9.2,-2.5c-2.7,0 -5.2,0.4 -7.4,1.3c-2.2,0.9 -4.1,2.1 -5.6,3.6c-1.6,1.6 -2.8,3.4 -3.6,5.5c-0.8,2.1 -1.2,4.4 -1.2,6.9c0,3.6 1.3,6.5 3.8,8.6c2.5,2.1 6.1,3.1 10.8,3.1Zm6.7,-18l-11.8,0c0.6,-1.7 1.6,-3.1 2.8,-4.1c1.2,-1 2.7,-1.5 4.6,-1.5c1.5,0 2.6,0.3 3.4,1c0.8,0.7 1.2,1.7 1.2,3c0,0.3 -0,0.5 -0,0.8c-0,0.2 -0.1,0.5 -0.1,0.8Zm-1.1,-1.2c0,-0.1 0,-0.2 0,-0.4c0,-0.9 -0.2,-1.6 -0.8,-2c-0.6,-0.5 -1.5,-0.7 -2.7,-0.7c-1.5,0 -2.8,0.4 -3.8,1.2c-0.7,0.5 -1.2,1.2 -1.7,1.9l8.9,-0Zm58.4,7.6c0.1,1.2 0.6,2.2 1.5,2.9c1.2,0.9 3,1.3 5.4,1.3c1.8,0 3.4,-0.3 5,-0.9c1.6,-0.6 3.1,-1.3 4.3,-2.1l0.3,-0.2l2.8,0l-2.1,9.1l-0.6,0.2c-1.8,0.8 -3.7,1.4 -5.6,1.8c-2,0.4 -4.1,0.6 -6.3,0.6c-5,0 -8.9,-1.2 -11.6,-3.4c-2.8,-2.3 -4.3,-5.5 -4.3,-9.5c0,-2.7 0.4,-5.1 1.3,-7.3c0.9,-2.2 2.2,-4.2 3.8,-5.9c1.6,-1.6 3.6,-2.9 6,-3.9c2.4,-0.9 5,-1.4 7.8,-1.4c4.4,0 7.7,1 10,2.7c2.3,1.9 3.6,4.6 3.6,8.3c0,1.2 -0.1,2.4 -0.4,3.5c-0.2,1.1 -0.5,2.2 -0.9,3.3l-0.3,0.8l-20,0Zm4.7,11.6c2.1,0 4.1,-0.2 6,-0.6c1.9,-0.4 3.7,-0.9 5.4,-1.7l1.6,-7.1l-1,0c-1.3,0.8 -2.8,1.5 -4.5,2.2c-1.7,0.7 -3.5,1 -5.5,1c-2.8,0 -4.8,-0.5 -6.1,-1.6c-1.3,-1.1 -2,-2.6 -2,-4.5l0,-0.6l20.4,0c0.4,-1 0.6,-2.1 0.9,-3.1c0.2,-1.1 0.3,-2.1 0.3,-3.2c0,-3.2 -1,-5.7 -3.1,-7.3c-2.1,-1.7 -5.2,-2.5 -9.2,-2.5c-2.7,0 -5.2,0.4 -7.4,1.3c-2.2,0.9 -4.1,2.1 -5.6,3.6c-1.6,1.6 -2.8,3.4 -3.6,5.5c-0.8,2.1 -1.2,4.4 -1.2,6.9c0,3.6 1.3,6.5 3.8,8.6c2.5,2.1 6.1,3.1 10.8,3.1Zm6.7,-18l-11.8,0c0.6,-1.7 1.6,-3.1 2.8,-4.1c1.2,-1 2.7,-1.5 4.6,-1.5c1.5,0 2.6,0.3 3.4,1c0.8,0.7 1.2,1.7 1.2,3c0,0.3 -0,0.5 -0,0.8c-0,0.2 -0.1,0.5 -0.1,0.8Zm-1.1,-1.2c0,-0.1 0,-0.2 0,-0.4c0,-0.9 -0.2,-1.6 -0.8,-2c-0.6,-0.5 -1.5,-0.7 -2.7,-0.7c-1.5,0 -2.8,0.4 -3.8,1.2c-0.7,0.5 -1.2,1.2 -1.7,1.9l8.9,0Zm18.1,-10.2c0.9,-3.8 2.5,-6.5 4.8,-8.2c2.3,-1.7 5.3,-2.6 9,-2.6c1.2,0 2.4,0.1 3.5,0.2c1.1,0.1 2,0.2 2.7,0.4l1.2,0.2l0.1,-0.5l11.3,0l-2.1,9.1l-11.3,-0l0.1,-0.2l-1.7,0l-0.2,-0.1c-0.3,-0.1 -0.7,-0.2 -1.3,-0.4c-0.5,-0.1 -1,-0.2 -1.5,-0.2c-1.1,0 -2,0.2 -2.5,0.7c-0.4,0.4 -0.7,0.9 -1,1.6l18.8,0l-6.9,29.8l-11.3,0l5,-21.6l-7.3,-0l-5,21.6l-11.3,0l5,-21.6l-3.8,0l1.9,-8.2l3.8,0Zm22,28.6l6.3,-27.4l-18.9,0l0,-0.2c0.4,-1.6 0.9,-2.7 1.7,-3.4c0.8,-0.7 1.9,-1.1 3.4,-1.1c0.6,0 1.2,0.1 1.8,0.2c0.6,0.2 1.1,0.3 1.4,0.4l0.6,0l1.4,-6.2c-0.7,-0.1 -1.6,-0.2 -2.6,-0.3c-1.1,-0.1 -2.2,-0.1 -3.4,-0.1c-3.4,0 -6.2,0.8 -8.3,2.4c-2.1,1.6 -3.6,4.1 -4.4,7.7l-0.2,0.8l-3.8,0l-1.3,5.8l3.8,0l-5,21.6l8.8,0l5,-21.6l9.7,0l-5,21.6l8.8,0Zm9,-38l-8.8,0l-1.5,6.7l8.8,0l1.5,-6.7Zm221.2,18.9l0,-0.1c0,-0.6 -0.3,-1.1 -0.9,-1.3c-1,-0.4 -2.4,-0.6 -4.3,-0.6c-1.4,0 -2.8,0.2 -4.5,0.7c-1.7,0.5 -3,0.9 -3.8,1.2l-0.2,0.1l-2.5,0l1.7,-8.7l0.7,-0.2c1.1,-0.3 2.7,-0.6 4.9,-0.9c2.2,-0.3 4.4,-0.5 6.6,-0.5c4.6,0 7.9,0.6 10,1.8c2.4,1.3 3.6,3.4 3.6,6.3c0,0.4 -0,0.8 -0.1,1.4c-0.1,0.6 -0.1,1.1 -0.3,1.5l-4.5,19.6l-11.2,0l0.3,-1.5c-0.7,0.4 -1.3,0.7 -1.9,1l-0,0c-1,0.4 -1.9,0.7 -2.7,0.9c-0.9,0.2 -2.1,0.3 -3.6,0.3c-2.6,0 -4.7,-0.8 -6.4,-2.2c-1.7,-1.5 -2.6,-3.5 -2.6,-5.9c0,-2.4 0.6,-4.5 1.7,-6.2c1.1,-1.7 2.8,-3 5.1,-4c2,-0.9 4.3,-1.5 7.1,-1.9c2.4,-0.3 4.9,-0.6 7.6,-0.8Zm-2.5,16.2l-0.7,2.9l8.7,0l4.3,-18.7c0.1,-0.4 0.2,-0.8 0.2,-1.4c0.1,-0.5 0.1,-0.9 0.1,-1.3c0,-2.4 -1,-4.1 -3,-5.2c-2,-1.1 -5.2,-1.7 -9.5,-1.7c-2.1,0 -4.3,0.2 -6.4,0.5c-2.1,0.3 -3.7,0.6 -4.8,0.9l-1.3,6.5l0.8,0c0.9,-0.3 2.2,-0.7 3.9,-1.2c1.7,-0.5 3.3,-0.7 4.8,-0.7c2.1,0 3.7,0.2 4.8,0.7c1.1,0.5 1.6,1.3 1.6,2.4c0,0.3 -0,0.5 -0.1,0.7c-0,0.2 -0.1,0.4 -0.1,0.5c-3,0.2 -5.9,0.5 -8.5,0.8c-2.6,0.4 -4.9,1 -6.8,1.8c-2,0.9 -3.5,2.1 -4.6,3.6c-1,1.5 -1.5,3.3 -1.5,5.5c0,2.1 0.7,3.7 2.2,5c1.4,1.3 3.3,1.9 5.6,1.9c1.4,0 2.5,-0.1 3.3,-0.3c0.8,-0.2 1.7,-0.5 2.6,-0.9c0.7,-0.3 1.4,-0.7 2.2,-1.2l2,-1.3Zm2.3,-10l-1.3,5.8c-0.9,0.6 -1.8,1.1 -2.8,1.5c-1,0.4 -1.9,0.6 -2.8,0.6c-1.3,0 -2.3,-0.2 -3,-0.6c-0.7,-0.4 -1,-1 -1,-2c0,-1.1 0.3,-1.9 0.8,-2.6c0.5,-0.7 1.3,-1.2 2.3,-1.5c1,-0.3 2.1,-0.6 3.5,-0.8c1.4,-0.2 2.8,-0.3 4.4,-0.5Zm-1.5,1.3c-0.9,0.1 -1.8,0.2 -2.7,0.3c-1.3,0.2 -2.4,0.4 -3.2,0.7c-0.8,0.3 -1.3,0.6 -1.7,1.1c-0.4,0.5 -0.5,1.1 -0.5,1.8c0,0.4 0.1,0.8 0.4,0.9c0.6,0.3 1.4,0.4 2.4,0.4c0.7,0 1.5,-0.2 2.3,-0.5c0.8,-0.3 1.5,-0.7 2.2,-1.1l0.9,-3.7Zm67.7,11c-0.4,0.2 -0.9,0.4 -1.3,0.6c-1.4,0.6 -3,0.8 -4.7,0.8c-3.4,0 -6.1,-0.9 -8,-2.6c-2,-1.7 -3,-4.4 -3,-7.9c0,-5.7 1.6,-10.4 4.9,-14.1c3.3,-3.7 7.3,-5.6 12,-5.6c1.7,0 3.2,0.2 4.6,0.6c0.9,0.2 1.6,0.5 2.3,0.9l0.4,-0.7l10.8,0l-5.9,25.7l-0,0c-0.6,2.8 -1.6,5 -2.7,6.9c-1.2,1.9 -2.7,3.4 -4.4,4.5c-1.7,1.1 -3.6,1.9 -5.7,2.4c-2,0.4 -4.2,0.7 -6.7,0.7c-2,0 -4,-0.1 -5.8,-0.4c-1.9,-0.2 -3.4,-0.5 -4.7,-0.8l-1.1,-0.3l1.8,-8.8l2.3,0l0.2,0.1c1.3,0.5 2.6,0.9 3.9,1.2c1.3,0.3 2.4,0.4 3.4,0.4c1.4,0 2.7,-0.1 3.7,-0.4c0.9,-0.2 1.7,-0.6 2.2,-1l0,-0c0.6,-0.5 1,-1 1.4,-1.7c0.1,-0.1 0.1,-0.3 0.2,-0.5Zm16.3,-26.8l-8.6,0l-0.6,1.2c-0.8,-0.6 -1.8,-1 -3.1,-1.4c-1.3,-0.4 -2.7,-0.6 -4.3,-0.6c-4.3,0 -8,1.7 -11.1,5.2c-3,3.5 -4.6,7.9 -4.6,13.3c0,3.1 0.9,5.5 2.6,7c1.7,1.5 4.1,2.3 7.2,2.3c1.6,0 3,-0.3 4.2,-0.8c1.3,-0.5 2.5,-1.2 3.8,-2.1l-0.1,0.5c-0.3,1.2 -0.6,2.2 -1,3.1c-0.4,0.8 -1,1.5 -1.7,2.1c-0.7,0.5 -1.5,0.9 -2.7,1.2c-1.1,0.3 -2.5,0.4 -4,0.4c-1.1,0 -2.3,-0.2 -3.7,-0.5c-1.4,-0.3 -2.8,-0.7 -4.1,-1.2l-1.1,0l-1.3,6.7c1.2,0.3 2.8,0.6 4.6,0.8c1.8,0.2 3.7,0.4 5.7,0.4c2.4,0 4.5,-0.2 6.4,-0.6c1.9,-0.4 3.7,-1.2 5.3,-2.2c1.6,-1 2.9,-2.4 4,-4.1c1.1,-1.7 2,-3.9 2.6,-6.5l5.5,-24.3Zm-10.3,6.3l-2.8,12.4c-0.8,0.5 -1.6,0.9 -2.5,1.2c-0.9,0.3 -1.8,0.5 -2.6,0.5c-1.8,0 -3,-0.4 -3.7,-1.2c-0.7,-0.8 -1,-1.9 -1,-3.3c0,-3.1 0.8,-5.6 2.4,-7.6c1.6,-2 3.7,-3 6.3,-3c0.6,0 1.3,0.1 2,0.3c0.8,0.2 1.4,0.4 1.9,0.6Zm-1.4,0.8c-0.2,-0.1 -0.5,-0.1 -0.7,-0.2c-0.7,-0.2 -1.3,-0.2 -1.8,-0.2c-2.2,0 -4,0.8 -5.4,2.5c-1.4,1.8 -2.1,4.1 -2.1,6.8c0,1.1 0.2,1.9 0.7,2.5c0.5,0.6 1.5,0.8 2.8,0.8c0.7,0 1.5,-0.1 2.2,-0.4c0.7,-0.2 1.3,-0.5 1.9,-0.8l2.4,-10.9Zm24.4,9.4c0.1,1.2 0.6,2.2 1.5,2.9c1.2,0.9 3,1.3 5.4,1.3c1.8,0 3.4,-0.3 5,-0.9c1.6,-0.6 3.1,-1.3 4.3,-2.1l0.3,-0.2l2.8,0l-2.1,9.1l-0.6,0.2c-1.8,0.8 -3.7,1.4 -5.6,1.8c-2,0.4 -4.1,0.6 -6.3,0.6c-5,0 -8.9,-1.2 -11.6,-3.4c-2.8,-2.3 -4.3,-5.5 -4.3,-9.5c0,-2.7 0.4,-5.1 1.3,-7.3c0.9,-2.2 2.2,-4.2 3.8,-5.9c1.6,-1.6 3.6,-2.9 6,-3.9c2.4,-0.9 5,-1.4 7.8,-1.4c4.4,0 7.7,1 10,2.7c2.3,1.9 3.6,4.6 3.6,8.3c0,1.2 -0.1,2.4 -0.4,3.5c-0.2,1.1 -0.5,2.2 -0.9,3.3l-0.3,0.8l-20,0Zm4.7,11.6c2.1,0 4.1,-0.2 6,-0.6c1.9,-0.4 3.7,-0.9 5.4,-1.7l1.6,-7.1l-1,0c-1.3,0.8 -2.8,1.5 -4.5,2.2c-1.7,0.7 -3.5,1 -5.5,1c-2.8,0 -4.8,-0.5 -6.1,-1.6c-1.3,-1.1 -2,-2.6 -2,-4.5l0,-0.6l20.4,0c0.4,-1 0.6,-2.1 0.9,-3.1c0.2,-1.1 0.3,-2.1 0.3,-3.2c0,-3.2 -1,-5.7 -3.1,-7.3c-2.1,-1.7 -5.2,-2.5 -9.2,-2.5c-2.7,0 -5.2,0.4 -7.4,1.3c-2.2,0.9 -4.1,2.1 -5.6,3.6c-1.6,1.6 -2.8,3.4 -3.6,5.5c-0.8,2.1 -1.2,4.4 -1.2,6.9c0,3.6 1.3,6.5 3.8,8.6c2.5,2.1 6.1,3.1 10.8,3.1Zm6.7,-18l-11.8,0c0.6,-1.7 1.6,-3.1 2.8,-4.1c1.2,-1 2.7,-1.5 4.6,-1.5c1.5,0 2.6,0.3 3.4,1c0.8,0.7 1.2,1.7 1.2,3c0,0.3 -0,0.5 -0,0.8c-0,0.2 -0.1,0.5 -0.1,0.8Zm-1.1,-1.2c0,-0.1 0,-0.2 0,-0.4c0,-0.9 -0.2,-1.6 -0.8,-2c-0.6,-0.5 -1.5,-0.7 -2.7,-0.7c-1.5,0 -2.8,0.4 -3.8,1.2c-0.7,0.5 -1.2,1.2 -1.7,1.9l8.9,0Zm-695.8,-9.7l-16.7,0l-1,4.4l15.5,0l-2.2,9.4l-15.5,-0l-3.6,15.5l-11.8,0l9,-38.8l28.5,-0l-2.2,9.4Zm0.7,-8.2l-26.1,0l-8.4,36.4l9.4,0l3.6,-15.5l15.5,0l1.6,-7l-15.5,0l1.6,-6.8l16.7,0l1.6,-7Zm122.3,18.5l-0.2,-0.1c-0.3,-0.1 -0.8,-0.2 -1.4,-0.2c-0.7,-0.1 -1.4,-0.1 -2,-0.1c-1.1,0 -2.1,0.1 -3.2,0.2c-0.8,0.1 -1.6,0.3 -2.5,0.6l-4.3,18.6l-11.3,0l6.9,-29.8l11.3,0l-0.6,2.6c0.9,-0.5 1.7,-1 2.6,-1.4c1.8,-0.8 3.7,-1.3 5.5,-1.3c0.3,0 0.7,0 1.1,0c0.4,0 0.8,0 1.1,0.1l1.3,0.1l-2.5,10.6l-1.9,-0Zm1,-1.2l2,-8.4c-0.3,-0 -0.6,-0.1 -1,-0.1c-0.4,-0 -0.7,-0 -1,-0c-1.7,0 -3.3,0.4 -5,1.1c-1.7,0.8 -3.3,1.8 -5,3l0.9,-4l-8.8,0l-6.3,27.4l8.8,0l4.2,-18.4c1.1,-0.4 2.2,-0.6 3.3,-0.8c1.1,-0.2 2.2,-0.3 3.3,-0.3c0.7,0 1.4,0 2.1,0.1c0.7,0.1 1.3,0.2 1.7,0.3l0.8,0Zm43.7,20.2l-11.3,0l9.3,-40.4l11.3,0l-9.3,40.4Zm7.8,-39.2l-8.8,0l-8.8,38l8.8,0l8.8,-38Zm121.1,16.8c0,0.5 -0,1.1 -0.1,1.7c-0.1,0.6 -0.2,1.3 -0.3,1.9l-4.3,18.8l-11.3,0l3.5,-15.1c0.2,-1 0.4,-1.8 0.5,-2.5c0.1,-0.6 0.2,-1.2 0.2,-1.8c0,-0.6 -0.1,-1.1 -0.4,-1.4c-0.4,-0.4 -1.1,-0.4 -2.1,-0.4c-0.6,0 -1.3,0.1 -2,0.4c-0.7,0.2 -1.5,0.6 -2.4,1l-4.6,19.8l-11.3,0l6.9,-29.8l11.3,0l-0.4,1.7c0.9,-0.5 1.8,-1 2.6,-1.3c1.6,-0.7 3.4,-1.1 5.4,-1.1c2.8,0 5,0.7 6.5,2.1c1.6,1.4 2.5,3.4 2.5,6.1Zm-1.2,0c0,-2.3 -0.7,-4 -2.1,-5.2c-1.4,-1.2 -3.3,-1.8 -5.7,-1.8c-1.8,0 -3.4,0.3 -4.9,1c-1.5,0.7 -3.1,1.6 -4.9,2.8l0.7,-3l-8.8,0l-6.3,27.4l8.8,0l4.5,-19.4c1.1,-0.6 2.2,-1.1 3.1,-1.4c0.9,-0.3 1.7,-0.5 2.4,-0.5c1.4,0 2.4,0.2 3,0.7c0.5,0.5 0.8,1.3 0.8,2.3c0,0.6 -0.1,1.3 -0.2,2c-0.1,0.7 -0.3,1.6 -0.5,2.6l-3.1,13.6l8.9,0l4.1,-17.8c0.1,-0.6 0.3,-1.2 0.3,-1.8c0.1,-0.6 0.1,-1.1 0.1,-1.6Zm83.6,23c-3.4,0 -5.8,-0.6 -7.2,-1.7c-1.6,-1.2 -2.4,-3 -2.4,-5.4c0,-0.6 0,-1.2 0.1,-1.7c0.1,-0.5 0.2,-1.1 0.3,-1.8l2.6,-11.5l-3.6,0l1.9,-8.2l3.6,0l1.8,-7.8l11.3,-0l-1.8,7.8l8.3,0l-1.9,8.2l-8.2,-0l-2.1,9l-0,0c-0.2,0.7 -0.3,1.4 -0.5,2c-0.1,0.6 -0.2,1.1 -0.2,1.5c0,0.5 0,0.9 0.3,1.1c0.4,0.3 1,0.4 1.8,0.4c0.4,0 0.9,-0.1 1.5,-0.2c0.6,-0.1 1.1,-0.3 1.5,-0.5l0.2,-0.1l2.5,-0l-1.9,8.1l-0.7,0.2c-1,0.3 -2.1,0.5 -3.3,0.6c-1.1,0.1 -2.5,0.2 -4.1,0.2Zm0,-1.2c1.5,0 2.8,-0.1 3.9,-0.2c1.1,-0.1 2.1,-0.3 3.1,-0.6l1.4,-5.9l-0.7,0c-0.4,0.2 -1,0.4 -1.8,0.6c-0.7,0.2 -1.3,0.3 -1.8,0.3c-1.1,0 -2,-0.2 -2.5,-0.6c-0.5,-0.4 -0.8,-1.1 -0.8,-2c0,-0.5 0.1,-1.1 0.2,-1.8c0.1,-0.7 0.3,-1.4 0.5,-2.1l2.3,-9.9l8.3,0l1.3,-5.8l-8.3,0l1.8,-7.8l-8.8,0l-1.8,7.8l-3.6,0l-1.3,5.8l3.6,0l-3,13c-0.1,0.7 -0.2,1.2 -0.3,1.7c-0.1,0.5 -0.1,1 -0.1,1.5c0,2 0.7,3.5 2,4.5c1.3,1 3.5,1.5 6.5,1.5Zm22.8,1.4c-2.4,0 -4.8,-0.2 -7,-0.7c-2.3,-0.5 -4.1,-1 -5.4,-1.6l-0.8,-0.4l2.1,-9.1l2.2,-0l0.3,0.3c0.3,0.3 0.7,0.6 1.2,0.9c0.5,0.3 1.2,0.7 2.1,1.1l0,0c0.8,0.3 1.7,0.6 2.8,0.9c1.1,0.2 2.2,0.4 3.4,0.4c1.7,0 3.1,-0.2 3.9,-0.6c0.5,-0.2 0.8,-0.5 0.8,-0.9c0,-0.2 -0.2,-0.3 -0.4,-0.4c-0.7,-0.3 -2,-0.7 -4.1,-1.2l-0,-0c-4,-0.9 -6.7,-2.1 -8.2,-3.4c-1.6,-1.5 -2.5,-3.3 -2.5,-5.5c0,-3.5 1.6,-6.3 4.7,-8.3c2.9,-1.9 6.9,-2.9 11.9,-2.9c2.1,0 4.3,0.2 6.4,0.6c2.2,0.4 3.8,0.9 4.8,1.4l0.9,0.4l-2,8.8l-2.1,-0l-0.3,-0.3c-1.1,-0.8 -2.3,-1.5 -3.8,-2c-1.5,-0.5 -3.1,-0.8 -4.7,-0.8c-1.7,0 -2.9,0.2 -3.8,0.6c-0.5,0.2 -0.8,0.5 -0.8,1c0,0.3 0.3,0.4 0.6,0.6c0.8,0.4 2.1,0.7 3.8,1.1c3.7,0.8 6.3,1.8 7.9,3c1.8,1.4 2.8,3.3 2.8,5.7c0,3.5 -1.6,6.2 -4.8,8.3c-3,1.9 -7,2.8 -12,2.8Zm0,-1.2c4.8,0 8.6,-0.9 11.4,-2.6c2.8,-1.8 4.2,-4.2 4.2,-7.2c0,-2.1 -0.8,-3.6 -2.3,-4.8c-1.5,-1.1 -4,-2.1 -7.5,-2.8c-1.9,-0.4 -3.2,-0.8 -4.1,-1.2c-0.9,-0.4 -1.3,-0.9 -1.3,-1.6c0,-0.9 0.5,-1.6 1.5,-2.1c1,-0.4 2.4,-0.7 4.3,-0.7c1.7,0 3.4,0.3 5,0.8c1.6,0.6 3,1.3 4.2,2.2l0.8,0l1.6,-6.9c-1,-0.5 -2.5,-0.9 -4.5,-1.3c-2.1,-0.4 -4.1,-0.6 -6.2,-0.6c-4.7,0 -8.5,0.9 -11.2,2.7c-2.8,1.8 -4.2,4.2 -4.2,7.3c0,1.8 0.7,3.3 2.1,4.6c1.4,1.2 3.9,2.3 7.7,3.1c2.2,0.5 3.6,0.9 4.3,1.3c0.7,0.3 1,0.8 1,1.5c0,0.8 -0.5,1.5 -1.5,2c-1,0.5 -2.5,0.7 -4.4,0.7c-1.3,0 -2.5,-0.1 -3.7,-0.4c-1.1,-0.3 -2.1,-0.6 -3,-1c-1,-0.4 -1.8,-0.8 -2.3,-1.2c-0.5,-0.4 -1,-0.7 -1.4,-1l-0.8,0l-1.7,7.2c1.2,0.6 2.9,1.1 5.1,1.5c2.2,0.4 4.5,0.7 6.8,0.7Zm70.8,-29l-17,-0l-1,4.1l15.7,0l-2.2,9.3l-15.7,-0l-1.6,6.8l17,-0l-2.1,9.3l-28.8,0l9,-38.8l28.8,-0l-2.1,9.3Zm0.6,-8.1l-26.3,0l-8.4,36.4l26.3,0l1.6,-6.9l-17,0l2.1,-9.2l15.7,0l1.6,-6.9l-15.7,0l1.5,-6.5l17,0l1.6,-6.9Zm8.2,22.2l-8.3,-14.5l12.3,0l3.9,7.5l7.1,-7.5l10.7,0l0.8,2.1l-13.4,13.1l8.4,14.7l-12.3,0l-4,-7.6l-7.4,7.6l-10.6,0l-0.8,-2.1l13.6,-13.3Zm1.5,0.2l-14.2,13.9l10.1,0l8.2,-8.4l4.4,8.4l9.5,0l-7.8,-13.7l14,-13.7l-10.2,0l-7.9,8.3l-4.4,-8.3l-9.5,0l7.7,13.5Zm36.9,15.9c-2,0 -3.9,-0.2 -5.6,-0.7c-1.8,-0.5 -3.4,-1.3 -4.7,-2.4l-0,-0c-1.3,-1.1 -2.4,-2.4 -3.1,-4c-0.7,-1.6 -1.1,-3.4 -1.1,-5.5c0,-2.6 0.5,-5.1 1.5,-7.3c1,-2.3 2.4,-4.2 4.2,-5.9c1.8,-1.6 3.9,-3 6.5,-3.9c2.5,-1 5.3,-1.4 8.2,-1.4c1.8,0 3.5,0.2 5.3,0.6c1.8,0.4 3.4,1 4.9,1.7l0.9,0.4l-2.3,9.3l-2.7,0l-0.4,-0.4c-0.8,-1 -1.8,-1.8 -2.8,-2.3c-1.1,-0.5 -2.3,-0.7 -3.6,-0.7c-2.4,0 -4.3,0.8 -5.8,2.5c-1.5,1.8 -2.2,3.9 -2.2,6.6c0,1.6 0.4,2.9 1.2,3.7c0.8,0.8 2.2,1.2 4,1.2c1.5,0 2.9,-0.3 4.1,-0.9c1.3,-0.6 2.4,-1.4 3.3,-2.1l0.3,-0.3l3.2,-0l-2.4,9.6l-0.5,0.2c-1.8,0.8 -3.4,1.4 -4.8,1.7c-1.4,0.3 -3.2,0.5 -5.4,0.5Zm0,-1.2c2.1,0 3.8,-0.2 5.2,-0.5c1.3,-0.3 2.9,-0.9 4.6,-1.6l1.9,-7.5l-1.2,0c-1,0.8 -2.2,1.6 -3.6,2.3c-1.4,0.7 -2.9,1 -4.6,1c-2.2,0 -3.8,-0.5 -4.8,-1.5c-1,-1 -1.6,-2.5 -1.6,-4.6c0,-2.9 0.8,-5.4 2.5,-7.3c1.7,-2 3.9,-2.9 6.7,-2.9c1.5,0 2.9,0.3 4.1,0.8c1.2,0.6 2.3,1.4 3.3,2.6l1.2,0l1.9,-7.5c-1.4,-0.7 -3,-1.3 -4.6,-1.6c-1.7,-0.4 -3.3,-0.6 -5,-0.6c-2.8,0 -5.4,0.5 -7.8,1.4c-2.4,0.9 -4.4,2.1 -6.1,3.7c-1.7,1.6 -3,3.4 -3.9,5.5c-0.9,2.1 -1.4,4.4 -1.4,6.8c0,1.9 0.3,3.6 1,5c0.7,1.4 1.6,2.7 2.8,3.6c1.2,1 2.6,1.7 4.3,2.2c1.6,0.5 3.4,0.7 5.3,0.7Zm48.6,-21.9c0,0.4 -0,1 -0.1,1.6c-0.1,0.7 -0.2,1.3 -0.3,2l-4.3,18.8l-11.3,0l3.5,-15.1c0.2,-1 0.4,-1.9 0.5,-2.6c0.1,-0.6 0.2,-1.2 0.2,-1.7c0,-0.7 -0.1,-1.2 -0.4,-1.5c-0.4,-0.3 -1.1,-0.4 -2.2,-0.4c-0.6,0 -1.3,0.1 -2,0.4c-0.7,0.2 -1.5,0.6 -2.4,1l-4.6,19.8l-11.3,0l9.3,-40.4l11.3,0l-2.8,12.3c0.9,-0.5 1.8,-1 2.6,-1.3c1.6,-0.7 3.5,-1.1 5.4,-1.1c2.8,0 5,0.7 6.6,2.1c1.6,1.4 2.4,3.4 2.4,6Zm-1.2,0c0,-2.2 -0.7,-3.9 -2,-5.1c-1.4,-1.2 -3.3,-1.8 -5.8,-1.8c-1.8,0 -3.4,0.3 -4.9,1c-1.5,0.7 -3.1,1.6 -4.9,2.8l3.1,-13.6l-8.8,0l-8.8,38l8.8,0l4.5,-19.4c1.1,-0.6 2.1,-1.1 3.1,-1.4c0.9,-0.3 1.7,-0.5 2.4,-0.5c1.4,0 2.4,0.2 3,0.7c0.5,0.5 0.8,1.3 0.8,2.4c0,0.6 -0.1,1.2 -0.2,1.9c-0.1,0.7 -0.3,1.6 -0.5,2.6l-3.1,13.6l8.9,0l4.1,-17.8c0.1,-0.6 0.3,-1.2 0.3,-1.9c0.1,-0.6 0.1,-1.1 0.1,-1.5Zm70.2,0c0,0.5 -0,1.1 -0.1,1.7c-0.1,0.6 -0.2,1.3 -0.3,1.9l-4.3,18.8l-11.3,0l3.5,-15.1c0.2,-1 0.4,-1.8 0.5,-2.5c0.1,-0.6 0.2,-1.2 0.2,-1.8c0,-0.6 -0.1,-1.1 -0.4,-1.4c-0.4,-0.4 -1.1,-0.4 -2.1,-0.4c-0.6,0 -1.3,0.1 -2,0.4c-0.7,0.2 -1.5,0.6 -2.4,1l-4.6,19.8l-11.3,0l6.9,-29.8l11.3,0l-0.4,1.7c0.9,-0.5 1.8,-1 2.6,-1.3c1.6,-0.7 3.4,-1.1 5.4,-1.1c2.8,0 5,0.7 6.5,2.1c1.6,1.4 2.5,3.4 2.5,6.1Zm-1.2,0c0,-2.3 -0.7,-4 -2.1,-5.2c-1.4,-1.2 -3.3,-1.8 -5.7,-1.8c-1.8,0 -3.4,0.3 -4.9,1c-1.5,0.7 -3.1,1.6 -4.9,2.8l0.7,-3l-8.8,0l-6.3,27.4l8.8,0l4.5,-19.4c1.1,-0.6 2.2,-1.1 3.1,-1.4c0.9,-0.3 1.7,-0.5 2.4,-0.5c1.4,0 2.4,0.2 3,0.7c0.5,0.5 0.8,1.3 0.8,2.3c0,0.6 -0.1,1.3 -0.2,2c-0.1,0.7 -0.3,1.6 -0.5,2.6l-3.1,13.6l8.9,0l4.1,-17.8c0.1,-0.6 0.3,-1.2 0.3,-1.8c0.1,-0.6 0.1,-1.1 0.1,-1.6Z" style="fill:#071542;"/></g><defs><linearGradient id="_Linear1" x1="0" y1="0" x2="1" y2="0" gradientUnits="userSpaceOnUse" gradientTransform="matrix(-53.896632,2.676699,-0.748581,-36.180206,192.264669,38.715255)"><stop offset="0" style="stop-color:#72501d;stop-opacity:1"/><stop offset="1" style="stop-color:#896529;stop-opacity:1"/></linearGradient><linearGradient id="_Linear2" x1="0" y1="0" x2="1" y2="0" gradientUnits="userSpaceOnUse" gradientTransform="matrix(33.130656,-9.875398,12.654001,42.452503,55.28889,164.797529)"><stop offset="0" style="stop-color:#d5b261;stop-opacity:1"/><stop offset="1" style="stop-color:#c39f4b;stop-opacity:1"/></linearGradient><linearGradient id="_Linear3" x1="0" y1="0" x2="1" y2="0" gradientUnits="userSpaceOnUse" gradientTransform="matrix(-24.721698,0.792467,-0.343364,-10.711556,103.503162,167.048322)"><stop offset="0" style="stop-color:#72501d;stop-opacity:1"/><stop offset="1" style="stop-color:#896529;stop-opacity:1"/></linearGradient><radialGradient id="_Radial4" cx="0" cy="0" r="1" gradientUnits="userSpaceOnUse" gradientTransform="matrix(30.737448,-48.693202,48.693202,30.737448,148.257501,92.16266)"><stop offset="0" style="stop-color:#1546a5;stop-opacity:1"/><stop offset="1" style="stop-color:#050e35;stop-opacity:1"/></radialGradient><linearGradient id="_Linear5" x1="0" y1="0" x2="1" y2="0" gradientUnits="userSpaceOnUse" gradientTransform="matrix(-65.040024,-79.074571,79.074571,-65.040024,147.415452,184.068134)"><stop offset="0" style="stop-color:#9b7127;stop-opacity:1"/><stop offset="1" style="stop-color:#2f1a08;stop-opacity:1"/></linearGradient><radialGradient id="_Radial6" cx="0" cy="0" r="1" gradientUnits="userSpaceOnUse" gradientTransform="matrix(-35.610718,156.939925,-156.939925,-35.610718,189.28076,27.159683)"><stop offset="0" style="stop-color:#b5994d;stop-opacity:1"/><stop offset="1" style="stop-color:#9a7026;stop-opacity:1"/></radialGradient><radialGradient id="_Radial7" cx="0" cy="0" r="1" gradientUnits="userSpaceOnUse" gradientTransform="matrix(-100.108281,67.403283,-67.403283,-100.108281,183.373025,30.670105)"><stop offset="0" style="stop-color:#81602b;stop-opacity:1"/><stop offset="1" style="stop-color:#836028;stop-opacity:1"/></radialGradient><linearGradient id="_Linear8" x1="0" y1="0" x2="1" y2="0" gradientUnits="userSpaceOnUse" gradientTransform="matrix(67.724358,85.464998,-85.464998,67.724358,74.152563,104.597963)"><stop offset="0" style="stop-color:#321c05;stop-opacity:1"/><stop offset="1" style="stop-color:#9f7123;stop-opacity:1"/></linearGradient><linearGradient id="_Linear9" x1="0" y1="0" x2="1" y2="0" gradientUnits="userSpaceOnUse" gradientTransform="matrix(43.254581,-178.93463,178.93463,43.254581,157.864656,193.276568)"><stop offset="0" style="stop-color:#9e7325;stop-opacity:1"/><stop offset="1" style="stop-color:#e6d085;stop-opacity:1"/></linearGradient><linearGradient id="_Linear10" x1="0" y1="0" x2="1" y2="0" gradientUnits="userSpaceOnUse" gradientTransform="matrix(123.769194,-83.749293,83.749293,123.769194,70.155818,98.073388)"><stop offset="0" style="stop-color:#311b03;stop-opacity:1"/><stop offset="1" style="stop-color:#e9d38a;stop-opacity:1"/></linearGradient><linearGradient id="_Linear11" x1="0" y1="0" x2="1" y2="0" gradientUnits="userSpaceOnUse" gradientTransform="matrix(-19.111782,71.247885,-71.247885,-19.111782,116.532033,65.94806)"><stop offset="0" style="stop-color:#f6e59d;stop-opacity:1"/><stop offset="1" style="stop-color:#ccaa53;stop-opacity:1"/></linearGradient><radialGradient id="_Radial12" cx="0" cy="0" r="1" gradientUnits="userSpaceOnUse" gradientTransform="matrix(-33.884987,12.352295,-12.352295,-33.884987,215.639835,118.772837)"><stop offset="0" style="stop-color:#f6e59d;stop-opacity:1"/><stop offset="1" style="stop-color:#ccaa53;stop-opacity:1"/></radialGradient><radialGradient id="_Radial13" cx="0" cy="0" r="1" gradientUnits="userSpaceOnUse" gradientTransform="matrix(-33.884987,12.352295,-12.352295,-33.884987,215.639835,118.772837)"><stop offset="0" style="stop-color:#8f6d30;stop-opacity:1"/><stop offset="1" style="stop-color:#926e30;stop-opacity:1"/></radialGradient><linearGradient id="_Linear14" x1="0" y1="0" x2="1" y2="0" gradientUnits="userSpaceOnUse" gradientTransform="matrix(-19.111782,71.247885,-71.247885,-19.111782,116.460521,65.701223)"><stop offset="0" style="stop-color:#6f5020;stop-opacity:1"/><stop offset="1" style="stop-color:#705021;stop-opacity:1"/></linearGradient><linearGradient id="_Linear15" x1="0" y1="0" x2="1" y2="0" gradientUnits="userSpaceOnUse" gradientTransform="matrix(-8.86468,30.048292,-30.048292,-8.86468,109.915754,82.065039)"><stop offset="0" style="stop-color:#a4833e;stop-opacity:1"/><stop offset="1" style="stop-color:#9d793b;stop-opacity:1"/></linearGradient><radialGradient id="_Radial16" cx="0" cy="0" r="1" gradientUnits="userSpaceOnUse" gradientTransform="matrix(-21.740227,36.025536,-36.025536,-21.740227,122.210356,115.590058)"><stop offset="0" style="stop-color:#f3dd99;stop-opacity:1"/><stop offset="0.1" style="stop-color:#eee099;stop-opacity:1"/><stop offset="1" style="stop-color:#cdaa56;stop-opacity:1"/></radialGradient></defs></svg>